<svg width="38" height="38" fill="none" xmlns="http://www.w3.org/2000/svg"><g clip-path="url(#clip0_6_280)"><path opacity=".08" d="M36.31 19.736a18.157 18.157 0 11-36.313.008 18.157 18.157 0 0136.314-.008z" fill="#000"/><path d="M38.005 18.153a18.156 18.156 0 11-36.313.008 18.156 18.156 0 0136.313-.008z" fill="#47D983"/><path d="M19.848 33.458c8.452 0 15.304-6.852 15.304-15.305 0-8.452-6.852-15.304-15.304-15.304-8.453 0-15.305 6.852-15.305 15.304 0 8.453 6.852 15.305 15.305 15.305z" fill="url(#paint0_linear_6_280)"/><path d="M12.388 18.33l7.099 3.462 7.102-3.461-7.102-3.461-7.1 3.46z" fill="#289656"/><path d="M19.487 23.234l-4.627-2.258-1.756-1.557-.716.354 7.099 10.755.72-.35-.16-.495 6.542-9.91-7.102 3.461zm5.877-8.194l-5.331-8.085.173-1.173-.72.35-7.098 10.756 7.099-3.461 7.102 3.46.716-.35-1.94-1.498z" fill="#289656"/><path d="M20.205 14.519l-7.103 3.46 7.103 3.462 7.099-3.461-7.1-3.461z" fill="#D5FFE6"/><path d="M20.205 13.076l-7.103 3.461 7.103-10.755 7.099 10.755-7.1-3.46zm0 9.807l-7.103-3.464 7.103 10.759 7.099-10.76-7.1 3.465z" fill="#D5FFE6"/><path d="M19.848 33.458c8.452 0 15.304-6.852 15.304-15.305 0-8.452-6.852-15.304-15.304-15.304-8.453 0-15.305 6.852-15.305 15.304 0 8.453 6.852 15.305 15.305 15.305z" stroke="#289656" stroke-width=".815" stroke-miterlimit="10"/><path style="mix-blend-mode:screen" opacity=".24" d="M28.636 34.045c-.83.46-1.693.854-2.583 1.18L2.528 12.72a18.19 18.19 0 011.07-2.646l25.038 23.972z" fill="url(#paint1_linear_6_280)"/></g><defs><linearGradient id="paint0_linear_6_280" x1="4.543" y1="18.153" x2="35.149" y2="18.153" gradientUnits="userSpaceOnUse"><stop stop-color="#47D983"/><stop offset=".65" stop-color="#34CB72"/><stop offset="1" stop-color="#289656"/></linearGradient><linearGradient id="paint1_linear_6_280" x1="22.164" y1="29.728" x2="4.989" y2="13.184" gradientUnits="userSpaceOnUse"><stop stop-color="#fff"/><stop offset=".11" stop-color="#FAFAFA"/><stop offset=".23" stop-color="#ECECEC"/><stop offset=".36" stop-color="#D5D5D5"/><stop offset=".5" stop-color="#B4B4B4"/><stop offset=".64" stop-color="#8A8A8A"/><stop offset=".79" stop-color="#575757"/><stop offset=".94" stop-color="#1B1B1B"/><stop offset="1"/></linearGradient><clipPath id="clip0_6_280"><path fill="#fff" d="M0 0h38v37.893H0z"/></clipPath></defs></svg>