<svg width="30" height="30" fill="none" xmlns="http://www.w3.org/2000/svg"><path d="M15 30c8.284 0 15-6.716 15-15 0-8.284-6.716-15-15-15C6.716 0 0 6.716 0 15c0 8.284 6.716 15 15 15z" fill="#988430"/><path d="M15 29.52c8.02 0 14.52-6.501 14.52-14.52C29.52 6.981 23.02.48 15 .48 6.981.48.48 6.982.48 15c0 8.019 6.501 14.52 14.52 14.52z" fill="#7A6A2A"/><path d="M15 29.214c7.85 0 14.213-6.364 14.213-14.214C29.213 7.15 22.85.786 15 .786 7.15.786.786 7.15.786 15 .786 22.85 7.15 29.214 15 29.214z" fill="#BA9F33"/><path fill-rule="evenodd" clip-rule="evenodd" d="M6.558 13.398c-.085-.078-.175-.155-.257-.233a24.148 24.148 0 00-.252-.233l-.253-.24c-.041-.041-.085-.077-.126-.119l-.131-.114c-.335-.318-.672-.636-1.003-.954.343.313.678.624 1.02.942l.119.119c.041.041.085.078.126.119l.252.233c.085.077.168.155.253.24.085.084.167.162.252.24zm-4.446-.048s1.218.126 1.813.211c.55.078 2.274.342 2.274.342l-4.087-.553zm0 0c.342.03.684.066 1.026.102.175.017.343.036.51.053l.257.03.253.036 1.02.162.509.085c.167.03.335.061.51.09a12.163 12.163 0 01-.51-.065l-.51-.073-1.02-.15c-.084-.013-.167-.03-.252-.042l-.257-.03c-.168-.016-.342-.04-.51-.06a29.592 29.592 0 01-1.027-.138zm3.966.87s-1.301.331-1.74.457c-.433.12-1.741.517-1.741.517l3.48-.973z" fill="#CFB66C"/><path fill-rule="evenodd" clip-rule="evenodd" d="M6.078 14.22a33.72 33.72 0 01-.869.246l-.869.233-.864.252-.432.12c-.143.04-.289.077-.437.119.143-.048.29-.098.432-.139l.432-.138c.29-.09.576-.175.864-.265.294-.073.583-.15.877-.22.279-.071.572-.141.866-.207zM2.78 15.996a130.15 130.15 0 002.177-1.002c.192-.09.75-.288.75-.288l-2.927 1.29z" fill="#CFB66C"/><path fill-rule="evenodd" clip-rule="evenodd" d="M2.778 15.995c.126-.048.245-.106.367-.162l.359-.168.72-.347c.24-.114.474-.24.722-.347a4.79 4.79 0 01.378-.138l.192-.061c.066-.017.126-.036.192-.053-.24.114-.492.21-.733.322-.24.12-.485.216-.733.323l-.733.323c-.246.1-.486.206-.73.308zm.16.672s1.495-.876 2.01-1.158c.27-.15 1.14-.582 1.14-.582l-3.15 1.74z" fill="#CFB66C"/><path fill-rule="evenodd" clip-rule="evenodd" d="M2.939 16.668c.252-.156.51-.313.767-.474l.384-.233.39-.228c.132-.078.258-.155.391-.228.064-.04.13-.073.2-.102l.203-.102c.27-.13.539-.264.823-.379-.257.163-.522.302-.786.445-.131.072-.265.138-.396.21-.131.074-.257.151-.39.222a9.51 9.51 0 01-.392.22l-.395.217-.799.432zm3.138-1.55l-1.23.943c-.301.228-1.187.869-1.187.869l2.417-1.811z" fill="#CFB66C"/><path fill-rule="evenodd" clip-rule="evenodd" d="M11.412 20.874l-.475-.9.277-1.127 1.973-.762-.84-1.723.415-1.74.78-1.559 2.407-.379 1.77-1.686 3.82.289.75 4.084-1.445 5.144-.822 2.662-3.335.127-1.549-1.073-1.813-.758-1.912-.6z" fill="#E2CC85"/><path fill-rule="evenodd" clip-rule="evenodd" d="M17.263 20.845s-.461.21-1.248.162c-.228-.306-1.822-.449-1.822-.449s-.2-.06-.551.085c-.354.144-.69.127-1.002.204-.314.078-.625-.33-.865-.415-.24-.09-.558-.306-.558-.306l-.672-.065-1.35-.57-2.143-2.137-.583.912-.18 1.13.649 1.337 1.745 1.59 3.403.863 2.017-.594 2.527-1.068.633-.68z" fill="#F1D789"/><path fill-rule="evenodd" clip-rule="evenodd" d="M5.174 13.296l.432-1.308.515-.845 1.657-.138-.497 1.451-1.386 2.466.575 2.202-1.02.51-.312-.481-.253-1.102-.017-1.238.306-1.517z" fill="#F4ECB4"/><path fill-rule="evenodd" clip-rule="evenodd" d="M7.031 20.755l-.318-.444s-.085-.212-.036-.396c.048-.187.041-.199.017-.27-.024-.07-.228-.313-.216-.521.012-.211-.017-.282.138-.45.163-.162.114-.443.114-.443l.211.13.048-.072s.078.06.078.155c.017-.13-.053-.738.107-.876s.444.648.444.648l-.175-1.14-.449-1.17-.798-1.069-.048-1.177v-.102s-.367.563-.469 1.008c-.073.306.102.677.066 1.117-.03.437-.066.403.04.576.108.173.367.529.265.786-.09.221-.395.066-.395.066s-.06.18-.143.245a.543.543 0 00-.12-.24 1.325 1.325 0 01-.016.097s-.054-.168-.107-.379c-.073-.281-.15-.652-.22-.852-.03.114-.103.462-.103.462l.041.534.2.733.191.48.187.587.163.395.13.3.115.678.55.582.294.131.214-.109z" fill="#F3E19D"/><path fill-rule="evenodd" clip-rule="evenodd" d="M5.461 12.228s-.396.672-.51 1.35c-.113.677-.215 1.393-.143 2.315.072.93.21 1.5.322 1.908.192.677.69 1.619.69 1.619l.017-.037a2.556 2.556 0 01-.2-.497c-.065-.257-.09-.563-.15-.701-.053-.139-.143-.258-.187-.428-.041-.162-.048-.42-.175-.611-.053-.078-.119-.282-.138-.486-.024-.306.012-.648-.017-.93-.053-.468-.09-.786-.041-1.03.048-.246.3-.942.456-1.496.102-.354.041-.653.228-.961.187-.306.301-.575.343-.762.048-.17-.496.747-.496.747h.001z" fill="#F2E8B0"/><path fill-rule="evenodd" clip-rule="evenodd" d="M7.337 11.959s-.204.06-.3.167c-.098.102-.139.187-.27.36-.131.172-.138.313-.245.529-.107.21-.343.529-.372.643-.029.114-.077.648-.138.9-.053.253.06.563.06.563l.139-.029s0 .18.138.301c.139.12.163-.403.163-.403l.517-1.745.779-.529.085-.427-.556-.33z" fill="#F5EEC0"/><path fill-rule="evenodd" clip-rule="evenodd" d="M7.716 12.75s-.367.024-.546.155c-.073.054-.102.098-.18.163-.143.119-.289.228-.359.384-.078.155-.163.39-.22.835-.025.187-.025.36-.042.51-.024.204-.06.366-.041.48.024.233.264.354.288.619l.497-.253.469-1.847.995-.624-.563-.631-.299.208v.001z" fill="#E6DB9D"/><path fill-rule="evenodd" clip-rule="evenodd" d="M5.092 25.189l.006-.055c.073-.625.085-1.098.138-1.394.078-.42.131-.576.12-.733-.018-.252-.037-.437-.013-.63.036-.258.289-.564.282-.775-.005-.168-.09-.277-.163-.379a13 13 0 01-.131-.186s.498-.343.493-1.721c.01.002.02.007.029.012l.245.696.168.204.643 1.2.827.803 1.224.822.767.835.077 2.226-1.002 1.3-.164.298a14.256 14.256 0 01-3.546-2.523z" fill="#E5CB7A"/><path fill-rule="evenodd" clip-rule="evenodd" d="M8.153 27.318s.017-.277.245-.456c.036.06.06.119.053.162.041-.073.33-.539.983-.66.653-.119.81-.595.81-.595l1.387-1.26 1.585-1.458 1.927-.677.9-.221s.017.065-.017.211c.168-.012.54-.097.925-.233.155-.06.301-.085.379-.005.114.107.13.36.138.51.187-.041.403-.221.576-.204.277.03.522.354.804.354.371 0 .538-.228.798-.407.156-.107.379-.24.505-.33.301-.221 3.485-1.195 3.485-1.195l1.117.073.18 1.2-.096 3.134-.036.034-5.077 2.651-7.036 1.08a14.113 14.113 0 01-4.499-1.548l-.036-.16z" fill="#D8C173"/><path fill-rule="evenodd" clip-rule="evenodd" d="M5.517 25.587c.1-.209.19-.384.206-.446.012.126.035.403.081.697a15.037 15.037 0 01-.287-.25z" fill="#F1D789"/><path fill-rule="evenodd" clip-rule="evenodd" d="M10.66 28.537l.91-.253.077.024s.041.025.041.107c.114-.065.211-.053.282-.097.036.078.072.335.233.366.167.037.347-.072.529-.21.18-.144.384-.323.539-.396.056.104.106.212.15.323.204-.163.558-.823 1.063-.811.146-.345.39-.64.701-.847.469-.318.762-.342 1.129-.313.145-.19.325-.35.529-.474.06.025.228.127.437.03.211-.098.449-.474.762-.522a.736.736 0 01.485.102s.912-.906 1.542-1.207c-.025-.073-.073-.347.665-.954.041.037.012.139.041.144a1.7 1.7 0 00.42-.252c.281-.211.619-.432.822-.493.384-.114.792.119.792.119a.367.367 0 01.114-.053 1.6 1.6 0 00.22-.048c-.004.126.066.342 0 .529.077.043.157.077.24.102-.04.09-.13.318-.28.427.125.06.142.13.322.192a3.568 3.568 0 00-.245.384c-.053.114-.245.587-.33.767-.09.18-.211.51-.27.576-.058.066-.27.347-.432.485.144-.053.733-.233.983-.301l-.814 1.207a14.243 14.243 0 01-11.659 1.35l.001-.003z" fill="#E0CD81"/><path fill-rule="evenodd" clip-rule="evenodd" d="M7.777 12.684s-.211 0-.252.03c-.042.029.211.09.289.119.077.029.245.162.288.27.042.101 1.517.696 1.517.696l1.044-.054.36-.497-.685-.6.48-1.415-.636.102-1.529.912-.767.294-.109.143z" fill="#DFC57C"/><path fill-rule="evenodd" clip-rule="evenodd" d="M10.067 13.153a.164.164 0 00.144.078c.216 0 .415.053.498.162.138.175.522.733.522.733l.917.33.06-1.08-1.003-.696-1.141.42v.053h.003z" fill="#E5CC7C"/><path fill-rule="evenodd" clip-rule="evenodd" d="M9.889 13.553s.167.013.379-.065c.21-.078.558-.245.708-.18.211.09.168.372.396.624.138.156.39.15.534.318.143.168.636.09.636.09l.187 1.008-.75.961-.246 1.194H10.72l-.926-.367-.456-1.104.228-1.117.324-1.361z" fill="#D2C281"/><path fill-rule="evenodd" clip-rule="evenodd" d="M11.85 13.602a.276.276 0 00.078.012c-.03.024-.09.078-.066.216.025.139.102.313.037.42a.524.524 0 01.114.199c.041.119.053.228.323.245a.568.568 0 00-.107.085s.187.163.282.313c.097-.004.354-.084.354-.084l.053.037.114-.049s-.106-.04-.029-.3c.073-.229.139-.216.144-.233.006-.017.054-.258.054-.355a4.3 4.3 0 00.065-.51l-.078-.846-.436-.265-.356-.343-.335.631-.22.22-.017.546.026.061z" fill="#E2C270"/><path fill-rule="evenodd" clip-rule="evenodd" d="M12.9 12.893s.077.221.107.391a.379.379 0 00.017-.102s.06.335.072.473c.024-.004.048-.012.054.013.005.024.06.293.048.444.1-.167.24-.307.407-.408.097-.06.211-.126.33-.131.187-.005.323.119.547.119.538 0 1.026-.396 1.386-.517.264-.09.492-.155.652-.301a1.71 1.71 0 00.343-.427c.167-.288.342-.54.517-.57-.08.014-.16.02-.24.016 0 0 .053-.053.144-.126.09-.073.199-.162.354-.162.277 0 .415.04.57.04.156-.004.245-.04.245-.04s.163.114.53.114c.366.004.611.036.803.053.192.017.835-.053 1.02-.048.12.005.238.034.347.085l-.595-1.728-2.136-1.867-1.272.9-1.957 1.957-1.893.701-.396.444v.677H12.9z" fill="#CCB360"/><path fill-rule="evenodd" clip-rule="evenodd" d="M17.149 11.903s.053-.053.143-.126c.09-.073.2-.163.354-.163.277 0 .415.041.57.041.156-.004.246-.04.246-.04s.163.113.529.113c.367.005.612.036.803.053.192.017.835-.053 1.02-.048.12.005.238.034.347.085l-.27-.779-.313-.595-.893-.978s-1.072-.63-1.08-.636a14.72 14.72 0 00-.371-.101l-.971.587-.881 2.28-.017.48.57.268c.143-.24.301-.431.45-.456-.134.015-.236.015-.236.015z" fill="#D5B457"/><path fill-rule="evenodd" clip-rule="evenodd" d="M17.136 12.066c-.085.004-.155-.013-.175-.073-.072-.204-.13-.233-.192-.233-.06 0-.143.13-.192.143-.048.012-.106-.15-.106-.15l-.054-.025s-.313.204-.534.444c-.22.24-.582.648-.745.721-.162.073-.72.097-.912.139a1.18 1.18 0 00-.432.21c-.029.032.085.066.102.098.017.029-.187.017-.204.048-.012.024.048.162.078.233a.395.395 0 01.167-.042c.187-.004.323.12.546.12.54 0 1.027-.396 1.386-.518.265-.09.493-.155.653-.3.078-.066.216-.212.343-.428.092-.148.182-.286.272-.388z" fill="#D2B257"/><path fill-rule="evenodd" clip-rule="evenodd" d="M9.408 24.078s-.048-.18-.493-.643c-.126-.131-.204-.24-.288-.318-.212-.2-.336-.253-.486-.367-.33-.245-.69-.245-.966-.546-.276-.301-.599-.876-.823-1.464-.22-.587-.281-.774-.281-.79 0-.018.06-.132.138-.115.078.017.078.167.097.204.039.06.083.115.131.167.114.131.277.288.36.522-.018-.199-.086-.42-.086-.42s.428.27.792.551c.366.282.516.379.624.558.107.18.359.653.48.792.12.138 1.776.66 1.776.66l.787.587.39.857-.305.48-.588.126-.953-.427-.306-.414z" fill="#D2B159"/><path fill-rule="evenodd" clip-rule="evenodd" d="M7.289 21.126s.199.318.684.62c.437.264 1.129.504 1.746.647.354.085.708.15 1.026.156.857.012 1.447-.233 2.178-.313.395-.042.88-.073 1.385-.192.648-.156 1.032-.33 1.554-.576.378-.175.726-.306 1.007-.474.396-.233.684-.492 1.02-.57-.042.114-.085.318-.415.53.174-.006.415-.018.415-.018s-.233.138-.644.45c-.252.191-.587.516-.93.732-.22.139-.46.24-.618.323-.384.211-.54.318-.791.576.09-.005.097 0 .097 0s-.319.041-.546.163c-.049 0-.132-.017-.277.024-.114.036-.265.119-.42.162-.221.066-.294.037-.294.037l.037.073s-.288-.005-.384.005c.017.004.012.012.012.012a.146.146 0 00-.048.017.5.5 0 01-.15.065c-.03.005-.054.005-.09.012.012.03.106.192.15.288-.036.025-.582.437-.582.437a.44.44 0 01.04.085c.018.053.025.131.042.168.041.072.066.084.066.084s-.066.013-.18.042c-.097.024-.216.065-.384.09-.052.006-.104.01-.156.012.025.053.131.257-.065.492-.197.236-.257.27-.318.42a.65.65 0 00-.097-.06c-.066-.03-.156-.073-.187-.131a1.556 1.556 0 01-.073.228c-.06.162-.15.322-.167.444-.066-.073-.187-.216-.355-.187-.167.029-.3.257-.33.323 0-.041-.029-.073-.036-.024a1.845 1.845 0 01-.612 1.063c-.005-.115-.005-.367-.017-.45-.048.048-.106.12-.456.27-.342.15-.288.3-.288.3s-.03-.24.155-.492c.187-.252.301-.371.301-.39a.108.108 0 00-.024-.054c-.024-.024-.073-.054-.073-.073.03-.012.318-.15.301-.437a.774.774 0 00-.204-.485c-.012-.012.115-.102.097-.131-.012-.017-.167-.131-.186-.192a.557.557 0 01.024-.107c.017-.053.029-.09.024-.126a1.01 1.01 0 00-.097-.245c.017.005.138 0 .138 0s-.097-.155-.114-.228c-.017-.073-.053-.265-.073-.301.042.005.144.012.144 0 .005-.037-.09-.097-.048-.144a.244.244 0 01.138.097c-.03-.078-.078-.228-.18-.289a.44.44 0 01.355.024c.143.085.192.204.192.204s.085.066.216.163c.15.119.342.288.648.407.065.037.233.037.354.013a.547.547 0 00.15-.061.277.277 0 01.054-.024 1.16 1.16 0 00-.09-.15c.042 0 .09.004.09.004s.03-.066-.102-.192c.03-.03.066-.048.066-.097-.042-.005-.114-.066-.131-.09.024-.017.06-.073.102-.09-.037-.029-.127-.15-.168-.162a.76.76 0 00.114-.054s-.204-.053-.27-.097c-.065-.048-.162-.13-.22-.155-.06-.024-.168-.036-.211-.085.04.012.106 0 .155 0 .036 0 .053.005.066.005-.005-.017-.005-.054.09-.066a.443.443 0 00.13-.041s-.09-.005-.192-.102c-.102-.097-.186-.175-.245-.187-.06-.012-.174.042-.245.037-.097-.012-.138-.061-.138-.061s-.323.029-1.039-.408c-.619-.378-.888-.713-.888-.713a1.063 1.063 0 01-.168-.078c-.233-.121-.556-.374-.546-.704l-.001.002z" fill="#C2A44D"/><path fill-rule="evenodd" clip-rule="evenodd" d="M16.22 6.558a.316.316 0 01.143.097c.114.131.187.379-.073.644.102.036.144.048.233.036-.09.107-.293.335-.305.534-.013.163.09.211.09.211s-.156.18-.163.48a1.85 1.85 0 01.24-.228c.18-.143.427-.306.594-.408a.343.343 0 00.017.126s.313-.257.576-.143c.12.054.066.221.066.221s.162-.06.277.054c.114.114.275.408.358.522.036.053.13.155.228.313.132.221.243.454.33.697.005-.127.036-.323.396-.2.359.127.767.392 1.109.913.342.52.427 1.11.6 1.333.174.216.354.575.366.726.012.15-.054.636.305 1.949.102-.408.258-1.313.258-1.313l.085-.799.097-2.47-2.58-2.144-2.017-1.464-1.313.126.082.187z" fill="#CAA13E"/><path fill-rule="evenodd" clip-rule="evenodd" d="M21.013 10.235s-.037-.24-.644-.648c-.606-.402-1.08-.402-1.517-.745-.335-.27-.684-.888-.912-1.092-.22-.201-.257-.784-.257-.784l.745-.624 1.108-1.602.937-1.031.45.624.623.733.347 1.47.127 2.154-1.008 1.546z" fill="#B59544"/><path fill-rule="evenodd" clip-rule="evenodd" d="M21.763 12.816a2.737 2.737 0 00-.119-.966c-.16-.498-.51-1.381-.672-1.712-.066-.366-.017-.396.054-.437.07-.041.335-.192.48-.72.145-.53.594-.547.594-.547l.277-.204.42 1.051.366.95.114.725.085.62-.199 1.307-.983.889-.417-.956z" fill="#C89D3A"/><path fill-rule="evenodd" clip-rule="evenodd" d="M8.048 27.398v-.027a.205.205 0 00.053-.048c.017-.024.03-.053.041-.06a.457.457 0 01.2-.037c.06.012.22.078.305.073.175-.005.379-.138.702-.078.485.09.6.42.88.607.193.131.391.073.42.073h.066c.012 0 .102-.102.15-.097.098.005.107.085.168.09.143.017.42-.073.558-.037a.267.267 0 01.11.444c-.151.139-.294.27-.323.384.037.029.072.059.106.09A14.13 14.13 0 018.048 27.4v-.002z" fill="#CEB052"/><path fill-rule="evenodd" clip-rule="evenodd" d="M20.971 22.549s.38-.505.51-.755c.131-.258-.415-3.522-.415-3.522l1.097-3.594-.029-1.17s.053-1.08.18-1.55c.15.27.619.596.72.768.049-.33.212-1.027.188-1.77.09.139.305 1.53.305 1.53l.216.936.282.996.313 1.05.187.727.107.174.09.306.084.33.246.774.144.636.114 1.153c.024.088.042.179.053.27.005.126-.017.199-.017.22 0 .023.041.277.024.47-.024.191-.024.341-.174.48-.15.137-.245.96-.245.96l-.27-.18s.053-.245-.073-.468a.474.474 0 00-.51-.233c-.138.03-.414.073-.504.15-.085.078-.294.319-.486.428-.24.144-.63.155-.84.204-.21.048-.444.192-.689.359a3.852 3.852 0 01-.607.32z" fill="#CCA847"/><path fill-rule="evenodd" clip-rule="evenodd" d="M20.971 27.852l.047.027a14.257 14.257 0 004.544-3.368 23.297 23.297 0 00-.052-1.18c-.04-.397-.012-.8-.024-1.032a14.97 14.97 0 00-.204-1.428c-.065-.245-.192-.366-.21-.366-.018.005-.12.461-.12.576 0 .114-.024.39-.024.461-.017-.005-.024-.048-.024-.066-.024.061-.054.168-.066.18-.012.012.017-.102 0-.126-.017-.024-.048-.012-.041-.073a.701.701 0 01.017-.107s-.073.107-.126.379c-.054.27-.054.277-.073.3-.017.03-.114.127-.119.164-.005.065.09.13.097.167.005.06-.085.342-.114.48-.03.138-.017.408-.048.546-.024.126-.048.2-.131.252.06.013.119.03.119.03s.085.359-.131.665c-.078.106-.097.155-.18.252-.162.18-.289.384-.3.517a.868.868 0 01-.018-.119s-.252.294-.359.461c-.138.216-.33.204-.384.258-.054.053-.066.15-.048.228-.048.012-.138.029-.199.216a.454.454 0 01-.216.257c-.114.065-.253.085-.323.102.06.017.085.017.114.036-.036.06-.204.156-.39.277a.817.817 0 00-.323.39c-.048.103-.12.168-.233.18.048.03.119.097.155.12-.053.012-.144.012-.306.15-.17.14-.228.182-.306.194z" fill="#C39D3C"/><path fill-rule="evenodd" clip-rule="evenodd" d="M17.594 28.977c.093-.065.194-.119.3-.16.378-.15.779-.179.937-.227.15-.048.269-.114.456-.15l-.014.12c-.55.173-1.112.312-1.68.417h.001z" fill="#D2BA6B"/><path fill-rule="evenodd" clip-rule="evenodd" d="M24.575 19.02s-.078.42-.216.684c-.138.265-.288.631-.288.631 0-.082.01-.165.03-.245-.176.102-.6.347-.72.456-.115.102-.307.282-.355.367.114-.335.233-.636.252-.775-.174.127-.99.799-1.415 1.243l-1.323 1.07c-.152.083-.31.157-.47.221-.229.097-.498.18-.697.257.053-.143.138-.27.257-.39.127-.12.505-.53.563-.72.054-.2.066-.319-.005-.486-.065.017-.215.024-.317.053-.102.03-.212.139-.212.139s.078-.444.245-.864c-.126.004-.342.04-.342.04s.301-.504.816-.856a2.658 2.658 0 00-.46.143c-.302.126-.632.313-.877.415.138-.192 1.11-1.577 1.687-2.869.576-1.288.791-1.619.917-2.31.066-.342.048-.848.066-1.301.017-.45.073-.852.036-1.122.15.187.714.714.733 1.891.017 1.177-.539 2.767-1.128 3.624.143.041.517.09.9-.576.383-.666.379-.852.517-1.129.017.139.012.187.012.187s.559-.677.823-1.529c.053.367.211.69-.037 1.362-.22.607-.51.755-.51.755s.144-.025.355-.15c.037.089.03.191.09.227.06.036.143.097.155.156.066-.098.168-.221.2-.314-.025.192-.042 1.032.047 1.46.188-.018.38-.03.51-.367-.09.33-.09.529-.029.81.1-.067.19-.189.19-.189z" fill="#C0993A"/><path fill-rule="evenodd" clip-rule="evenodd" d="M18.27 5.64s-.187.078-.505.078c-.277 0-.2-.106-.631-.106-.665 0-2.988.384-3.396.378-.264-.005.893.114.893.114l2.96.042.594-.048.22-.45-.135-.007z" fill="#A88F33"/><path fill-rule="evenodd" clip-rule="evenodd" d="M10.597 11.425s-.379.289-.54.51c-.16.22-.244.366-.426.546a.372.372 0 00.126-.017s0 .048-.03.06a.17.17 0 01.139.048c-.053.03-.2.175-.085.348.085.13.265.143.265.143s-.042.119.13.106c.372-.017.787-.18.979-.138.192.048.3.066.437.301.144.233.27.27.27.27s.084-.217.065-.54a1.59 1.59 0 00.114-.545l-.126-.93-.551-.697-.714.396-.053.138z" fill="#E3C571"/><path fill-rule="evenodd" clip-rule="evenodd" d="M11.273 11.287s.054.126.277.138c-.024.053-.024.06-.017.102l.012.102a.225.225 0 00.066-.048c.012.053-.013.138 0 .199.007.037.02.072.036.106a.22.22 0 01.012-.024c.005-.012.048.131.168.24a.1.1 0 01.012-.048c.002.03.012.06.029.085a.088.088 0 01-.024-.017s.012.384.077.583a.277.277 0 00.03-.042c0-.012-.005.107-.018.192-.017.085-.004.204-.004.204a.638.638 0 01.143-.085c.073-.029.192-.119.264-.318a2.13 2.13 0 00.097-.347c.024.045.04.094.048.144.005.06.12.03.12.03l.024-.265.144-.6.13-.371.632-.983 1.14-.878.995.228.84-1.14-1.447-.87-1.369.143-1.242 1.721-.995 1.561-.18.257z" fill="#D8B65B"/><path fill-rule="evenodd" clip-rule="evenodd" d="M18.443 8.796s-.085.017-.33.144-.415.168-.51.354c-.094.187-.101.335-.101.335s.167-.072.264-.097c.102-.024.216-.017.204.025a.278.278 0 01-.048.077s.192-.005.187.09a.5.5 0 01-.073.245c-.036.048-.187.12-.204.175-.04.114.017.12-.004.211-.017.09-.097.265-.36.57a3.06 3.06 0 00-.384.523s-.13-.246-.199-.457c-.048.024-.305.168-.305.168l-.597-2.08.011-.139s.054-.065.066-.187c-.09-.029-.102-.053-.22-.167-.12-.114-.217-.253-.416-.347-.029-.054-.065-.126-.211-.156-.146-.029-.233-.053-.233-.053s.078-.03.114-.09c-.09.012-.162.041-.36.037-.198-.005-.22-.012-.33.004-.108.017-.24.066-.288-.101-.053-.042-.167-.005-.265.138-.097.143-.13.257-.318.313a.652.652 0 01-.084.233c-.054.09-.139.18-.253.313-.18.211-.15.558-.437.823-.289.264.048-.733.048-.733l.461-1.104 1.313-1.284 2.04-.138.198 1.056.995.342.63.958z" fill="#D3AE4D"/><path fill-rule="evenodd" clip-rule="evenodd" d="M18.768 9.03l-.857-1.236-.6-.461s-.426-.787-.456-.811c-.024-.017-.427-.06-.684-.078l.048.12a.316.316 0 01.144.096c.114.131.187.379-.073.644.102.036.144.048.233.036-.09.107-.293.335-.306.534-.012.163.09.211.09.211s-.155.18-.162.48a1.85 1.85 0 01.24-.228c.18-.144.427-.306.594-.408a.342.342 0 00.017.126s.313-.257.576-.143c.12.054.066.221.066.221s.162-.06.276.053c.115.115.277.408.36.522.036.054.13.156.228.313.132.221.243.455.33.697.005-.097.024-.233.192-.233l-.255-.456z" fill="#CAA13E"/><path fill-rule="evenodd" clip-rule="evenodd" d="M5.922 12.539s-.06-.15 0-.444c.06-.294.155-.432.187-.864.031-.432.313-.971.313-.971l.779-.354.55.15.163.738-.696.384s-.037.162-.233.294c-.197.13-.469.232-.534.366a1.07 1.07 0 00-.085.257s-.2-.04-.318.09c-.126.134-.122.253-.126.355v-.001z" fill="#F4EFC8"/><path fill-rule="evenodd" clip-rule="evenodd" d="M7.495 12.342s-.066.041-.114.144c-.048-.077-.163-.539-.168-.954-.005-.415-.03-.518.067-.66.096-.144.472-.294.419-.552-.054-.245-.277-.347-.551-.277-.192.048-.335.457-.534.66-.15.156-.33.132-.379.216-.066.115-.005.229-.024.301a1.452 1.452 0 01-.175.314c-.22.317-.595.767-.643 1.17.017-.229.005-.233.065-.486l-.036-.06.24-.787.155-.648.347-1.085.612-1.11.595-.664.618.041.073.93.355 1.745.745.917-1.194.804-.474.041z" fill="#EBCC73"/><path fill-rule="evenodd" clip-rule="evenodd" d="M7.866 12.672s-.102.024-.138.005c-.037-.02-.073-.041-.06-.066.011-.024.077-.065.077-.085a.068.068 0 00-.06-.072c-.057-.008-.074.029-.074.029s-.053-.041-.097-.048a.671.671 0 01.078-.005.758.758 0 00-.211-.06c.06-.037.18-.144.257-.144.078 0 .126-.012.114-.053-.012-.042-.073-.102-.138-.127.024-.029.041-.072-.017-.191-.06-.12-.037-.2-.017-.229.017-.036.078-.101.107-.143.029-.041.053-.097.102-.126.024-.017.102-.048.18-.078.084-.029.155-.065.203-.029.054.037.03.085.03.085s.167-.06.317.017c.15.073.517.12.517.12l.132.264-.87.745-.358.18-.073.012z" fill="#E5C66B"/><path fill-rule="evenodd" clip-rule="evenodd" d="M9.074 11.454s-.27.18-.33.245c.036.005.097.03.072.066-.029.036-.203.162-.3.281-.102.12-.2.27-.233.343-.037.065-.314.257-.408.281.199 0 .6-.245.75-.245-.005.073.041.155.126.162.085.008.33.054.66-.15.33-.199.221-.347.36-.444.264-.175.37-.33.516-.427.146-.097.221-.12.221-.12s.005-.072.048-.065a.064.064 0 01.054.041s.252-.18.576-.228a.034.034 0 01-.017-.017s.024-.012.029-.024c0 0 .017-.024.029-.012s.03.102.053.138c.054-.024.156-.252.156-.252l.245-.702v-.64l-.192.036-1.44.611-.874.906-.102.216z" fill="#E6BD62"/><path fill-rule="evenodd" clip-rule="evenodd" d="M13.219 8.31a.815.815 0 00.221-.09c-.029.079-.029.164-.155.348-.126.184-.131.211-.233.403-.102.199-.114.485-.211.611a.444.444 0 01.138-.04s-.097.084-.138.174c-.041.09-.114.277-.294.39-.18.115-.408.188-.653.457-.245.265-.497.6-.624.72.066-.114.156-.342.18-.492.024-.15-.005-.33.036-.53.041-.198.041-.342.24-.689.199-.347.54-1.553.54-1.553l.732-.233.221.524z" fill="#B6933F"/><path fill-rule="evenodd" clip-rule="evenodd" d="M12.69 7.867s-.22.318-.281.6c-.06.28-.005.256-.042.395a.514.514 0 000 .257.912.912 0 01.306-.301c.209-.126.379-.216.48-.323.102-.114.187-.3.408-.444-.09-.012-.216-.053-.24-.048.09-.102.359-.257.63-.444.27-.192.253-.27.69-.461-.143.024-.211-.012-.33 0 .048-.102.216-.15.384-.318.168-.167-.107-.415-.107-.415l-1.28.774-.619.728h.001z" fill="#C49937"/><path fill-rule="evenodd" clip-rule="evenodd" d="M9.216 7.289l.03-.233.366-.587.384-1.032v-1.41l-.03-.816.061-.534.046-.17.049-.065.313.162.432.588.041 1.133-.42 1.79L9.29 7.421l-.073-.133z" fill="#DFC068"/><path fill-rule="evenodd" clip-rule="evenodd" d="M10.169 2.376s-.192.005-.233.804c-.04.798-.06 1.218-.09 1.614-.029.396-.097.636-.13.869-.035.233-.054.55-.163.745-.048.09-.151.371-.391.582-.27.233-.672.396-.733.408-.107.024-.648.078-.87.2-.077.04-.21.09-.358.227a4.584 4.584 0 00-.967 1.309c-.432.852-.864 3.257-.864 3.257l.098-.163s.012-.216.228-.594c.21-.379.15-.804.444-1.53.114-.276.257-.635.432-.941.277-.498.612-.925.949-1.158a2.986 2.986 0 011.158-.461l.653-.432s.114-.22.264-.473c.211-.355.48-.75.54-1.325.089-.853-.127-1.41-.115-1.916.012-.504.017-.876.119-.966.102-.09.03-.055.03-.055h-.001z" fill="#A88F33"/><path fill-rule="evenodd" clip-rule="evenodd" d="M10.169 6.187s.288-.709.42-1.338c.024-.126.072-.252.084-.354.061-.594.078-.84 0-1.165-.06-.24-.293-.456-.415-.624-.118-.175-.174-.24-.15-.277a.269.269 0 01.211-.09.722.722 0 01.517.24c.187.217.335.95.335.95l.156.967.395 1.218-1.553.474v-.001z" fill="#C99E3D"/><path fill-rule="evenodd" clip-rule="evenodd" d="M12.877 5.45s-.053.023-.15 0a.217.217 0 01-.097.203c-.102-.041-1.056.041-1.056.041s-.444-.077-.583-.665c-.097-.39.073-.93.017-1.284-.085-.522-.204-.624-.216-.786-.012-.163-.024-.204-.024-.306-.054-.012-.085-.03-.138-.03-.013-.047.012-.089-.042-.174.03.012.229.037.461.257.192.18.192.245.221.282.037.036.33.288.457.539.126.25.371 1.05.427 1.182.017.053.053.107.144.228.14.175.347.464.58.512z" fill="#B58634"/><path fill-rule="evenodd" clip-rule="evenodd" d="M11.304 3c.147.238.279.484.395.738.143.323.228.587.408.803-.097-.281-.27-.835-.371-1.031-.115-.208-.348-.432-.432-.51z" fill="#A88F33"/><path fill-rule="evenodd" clip-rule="evenodd" d="M9.653 6.99s-.245.061-.701.301a7.42 7.42 0 01-.432.204 7.54 7.54 0 01-1.051.396.7.7 0 00.036.041s0 .12.066.187c-.037.036-.522.366-.379 1.47.097-.036.211-.084.228-.084.03.005.037.085.073.085s.155-.048.281-.211c-.004.065-.077.725.314 1.17.072-.085.257-.367.257-.367l.005-.09s.017-.313.119-.6c.102-.286.3-.497.3-.497l1.04-1.483-.156-.522z" fill="#E6C367"/><path fill-rule="evenodd" clip-rule="evenodd" d="M8.682 9.168a.574.574 0 01-.156.078.6.6 0 01.102-.474c.168-.245.534-.563.636-.816.066-.162.037-.57.62-1.092.582-.522.81-.701.81-.701l.941-.474 1.158.457-.575 2.254-.447 1.056-1.776-.335-1.313.047z" fill="#DCBA5A"/><path fill-rule="evenodd" clip-rule="evenodd" d="M9.36 8.556l.22-.277v-.196s.246-.066.51-.335c.265-.27.632-.787.954-.755.323.036.355.701.367.888.012.187.053.612.119.84.073.228-.787 1.092-.787 1.092l-.583.444-.8-1.701z" fill="#E9CE77"/><path fill-rule="evenodd" clip-rule="evenodd" d="M10.043 10.86s.18-.282.048-.343c.077-.175.22-.36.22-.36s.103-.252.433-.562c.33-.311.534-.517.587-.726a1.91 1.91 0 00.053-.415.79.79 0 00.115.078c.053.024.305.233.27.653-.037.42-.193.594-.193.594s-.15.15-.257.228c-.114.078-.155.168-.347.175a.231.231 0 01.065-.036s-.199-.025-.306.072c-.107.097-.334.396-.448.486l-.24.155z" fill="#CDAE50"/><path fill-rule="evenodd" clip-rule="evenodd" d="M18.114 6.138a2.923 2.923 0 00-.893-.174c-.51-.017-1.255.012-1.986.017-.786.004-1.5-.27-2.49-.318-.163-.098-.576-.522-1.867.378.078-.005.937-.199 1.236.175.3.371.216 1.002.175 1.153-.078.335-.33.823-.432 1.165-.102.342-.078.522-.151.762s-.233.36-.138.636c.126-.078.191-.078.402-.551.211-.473.168-.81.518-1.211.342-.403.912-.954 1.128-1.093.217-.138 1.937-1.031 3.738-.179.434-.046.76-.76.76-.76z" fill="#D2A83E"/><path fill-rule="evenodd" clip-rule="evenodd" d="M11.604 5.808a.227.227 0 00-.011-.053.392.392 0 00-.066-.098s-.427-.077-.643-.053c-.38.041-.721.51-.882.75-.16.24-.359.612-.575.803a.08.08 0 00-.012-.053s.012.017-.012.041c-.024.025-.024.037-.012.048l.037.037c.012 0 .347-.15.803-.576.485-.445.857-.672 1.05-.75a1.48 1.48 0 01.324-.096z" fill="#C29637"/><path fill-rule="evenodd" clip-rule="evenodd" d="M19.892 3.983s-.078.097-.175.204c-.216.228-.498.485-.738.75-.228.252-.485.449-.774.779-.29.33-.624.696-.709.803a.792.792 0 00-.138.372c-.041-.03-.09-.06-.09-.06.02.037.045.073.073.106.06.085.155.192.204.257.06.083.102.177.126.277.029.005.216.041.449-.342.233-.384.538-.804.538-.804l.486-.72.306-.612.384-.685.058-.325z" fill="#AC8132"/><path fill-rule="evenodd" clip-rule="evenodd" d="M20.386 3.493s-.293.24-.407.384c-.114.144-.384.522-.384.522l.097-.012.492-.437.192-.342.01-.115z" fill="#A88F33"/><path fill-rule="evenodd" clip-rule="evenodd" d="M20.299 22.782s-.005-.2.107-.318c.114-.12.403-.294.684-.95.282-.655.313-.803.313-.803s-.505.432-.816.534c.073-.15.114-.257.15-.335-.04-.036-.215-.078-.232-.097.097-.097.15-.335.347-.493.252-.192.713-.522 1.072-.816.358-.294 1.063-.978 1.153-1.177a.44.44 0 01.065.126s-.354.462-.538.755c-.163.253-.151.396-.151.396l.335-.144s.097.36-.342.905c.192-.072.27-.029.378-.09-.18.115-.427.27-.66.697-.228.427-.539.925-1.063 1.235-.51.328-.803.573-.803.573v.002z" fill="#A67A2E"/><path fill-rule="evenodd" clip-rule="evenodd" d="M18.983 6.39s-.198.416-.228.739c-.004.077-.024.138-.024.228-.005.289.017.612-.048.762-.024-.06-.036-.102-.06-.126-.037.102-.103.42-.156.539a2.532 2.532 0 01-.073-.665c.005-.318.012-.38.012-.445-.012.097-.077.229-.102.306-.036-.065-.077-.15-.126-.22-.029.047-.065.118-.097.155a2.255 2.255 0 01-.024-.216c-.005-.126-.012-.289-.005-.323.012-.066.114-.323.33-.558.257-.282.522-.823.6-.99.077-.168.407-.865.407-.865h.253l-.367.835s-.22.457-.335.624c-.114.168-.354.648-.461.835.078-.102.143-.155.221-.252.075-.068.284-.362.284-.362z" fill="#8C6228"/><path fill-rule="evenodd" clip-rule="evenodd" d="M20.393 3.461a1.044 1.044 0 01-.192.347c-.15.18-.473.42-.63.612-.145.187-.433.697-.302 1.3.048-.13.139-.39.379-.684.24-.293.497-.63.624-.893.126-.264.143-.473.143-.473l.048-.06-.03-.14-.04-.009z" fill="#CBA94C"/><path fill-rule="evenodd" clip-rule="evenodd" d="M25.308 19.56s-.098-.264-.127-.504c-.029-.24.048-.288-.04-.563-.054-.168-.151-.144-.176-.168-.024-.023-.04-.276-.036-.415a1.549 1.549 0 00-.03-.395c-.036-.03-.06-.054-.113-.233-.061-.18-.09-.27-.12-.323-.028-.053-.114-.102-.114-.155 0-.107.098-.163.098-.192-.005-.061-.078-.012-.098-.03-.024-.029.061-.203.03-.228-.012-.012-.097.09-.12.061-.023-.03-.053-.318-.096-.51-.041-.187-.085-.322-.09-.378-.005-.054-.335-.995-.415-1.224a5.771 5.771 0 01-.163-.587c-.024-.114-.041-.347-.053-.323-.012.024-.005.143-.024.138-.017-.004-.078-.42-.097-.485-.017-.066-.12-.288-.144-.449a48.044 48.044 0 01-.114-.876c-.037-.289-.054-.408-.054-.48a2.992 2.992 0 00-.03-.53 4.936 4.936 0 00-.227-.892c-.163-.408-.595-1.452-.672-1.712 0-.065.085-.029.085-.029s.21.53.366.937c.15.408.294.767.33.804.03.036.258.436.36 1.092.102.655.138 1.26.199 1.662.029.192.053.396.114.6.065.22.167.449.3.798.115.294.2.54.246.75.053.27.053.474.085.607.029.114.073.342.175.672s.252.755.354 1.02c.2.529.288.97.318 1.206.026.243.116 1.083.092 1.335z" fill="#A88F33"/><path fill-rule="evenodd" clip-rule="evenodd" d="M20.404 3.432l-.012.03s.036.011.029.06c0 .066-.003.133-.012.199-.012.085-.036.15-.041.204 0 .114.017.245-.144.57-.048.09-.078.168-.102.221a.654.654 0 01-.126.211c.085-.048.39-.24.546-.211-.107.06-.27.18-.372.335a.835.835 0 00.288 0c.27-.041.57-.138.835-.119.29.017.175-.347.175-.347l-.333-.733-.631-.444-.1.024z" fill="#BE9C44"/><path fill-rule="evenodd" clip-rule="evenodd" d="M22.051 8.922s-.282-.281-.396-1.248c-.114-.97-.09-2.4-.09-2.4l-.228-.558s-.048-.371-.167-.51c-.12-.138-.354-.37-.461-.485-.107-.114-.228-.27-.301-.294.036-.06.199-.402.822-.407.624-.005.817.342.882.468.065.126.359.672.468 1.712.102 1.039.107 1.117.09 1.476-.012.199-.078.66-.192 1.153-.105.417-.219.883-.427 1.094z" fill="#A17C34"/><path fill-rule="evenodd" clip-rule="evenodd" d="M21.168 9.75a.477.477 0 00.27-.06c.09-.006.415.036.664-.282.017.072.061.27-.053.444.06-.06.15-.085.163-.102.005.09.09.367-.27 1.039.097-.107.211-.102.313-.114.005.126.073.55-.107.779-.118.155-.313.107-.313.107a.62.62 0 000-.102c-.004-.066-.029-.131-.012-.175a.87.87 0 01-.252-.175c-.211-.199-.486-.539-.505-.791a.312.312 0 01.228-.342.27.27 0 01-.053-.066c-.012-.041-.024-.107-.073-.16z" fill="#8C6228"/><path fill-rule="evenodd" clip-rule="evenodd" d="M19.296 6.697s-.012-.017-.077.06c.012-.077.024-.15.029-.22a.759.759 0 01.119-.18c-.037.072-.06.138-.06.138s.089-.167.22-.27c.09-.072.204-.106.252-.174.054-.073.042-.085.054-.097 0 0 .119-.078.3-.306.025-.03.062-.06.086-.09a3.61 3.61 0 00.252-.119c.12-.065.253-.155.335-.192.163-.073.335-.065.415-.18.06-.017.126-.199.114-.354.09.036.551.323.71.95.113.443-.09 1.128-.176 1.458-.085.33-.097.575-.216.726-.15.199-.636.48-.755.619-.101.114-.407.402-.395.611.012.155.204.24.245.27.041.029.041.065.119.048.078-.018.107-.054.138-.054.037.005.037.012.054.012a.176.176 0 00.036-.005s-.012.221-.53.288c-.036.005-.072.017-.118.025.06-.03.097-.03.163-.12-.073-.011-.282-.024-.335-.04a.644.644 0 01.119-.144c.04-.036-.005-.048-.042-.029a1.938 1.938 0 00-.18.138c-.06.054-.113.127-.21.192a.473.473 0 01.09-.415c-.03.005-.086.09-.139.073a.775.775 0 01.017-.264c.03-.11.187-.301.187-.301l.762-1.362.162-1.032-1.745.34z" fill="#92723A"/><path fill-rule="evenodd" clip-rule="evenodd" d="M19.254 6.755s-.041.029.041.085c-.012.017-.041.077-.078.119-.04.048-.084.078-.101.119-.037.085-.066.143-.066.18 0 .036-.012.269-.114.42-.036.053-.078.143-.107.203-.06.107-.114.192-.126.24-.024.085-.041.318-.041.318l.073-.09c-.03.061-.061.126-.107.175.029-.024.114-.085.257-.211.2-.168.51-.45.888-.672-.114.041-.21.041-.288.053.06-.06.606-.701.893-.762a.114.114 0 00.024-.078l-.245-.024-.498.107-.072-.384-.333.201z" fill="#B18E3E"/><path fill-rule="evenodd" clip-rule="evenodd" d="M20.047 8.94s-.066.065-.127.228a.767.767 0 01-.119-.163c-.09-.15-.227-.342-.55-.233-.005-.102-.013-.155 0-.228.053-.012.216-.143.378-.335.114-.131.221-.282.294-.473a3.49 3.49 0 01.24-.168c.155-.107.342-.252.371-.415-.072.03-.228.102-.461.09.09-.041.228-.085.211-.265l.066-.041a.24.24 0 00-.085-.012c-.005-.017-.012-.041-.054-.03-.04.013-.048.013-.053.03-.017.005-.073 0-.114.03-.041.028-.155.125-.2.142a5.72 5.72 0 00.042-.072s-.119.012-.204.048c-.155.053-.335.15-.517.245.017-.03.024-.048.037-.054.011-.005.04-.012.04-.017 0-.005-.011-.048-.004-.065.054-.115.119-.226.192-.33a.644.644 0 00.102-.277l.371-.187 1.044-.24.677.041-.085.469-.4.818-.342.745-.39.456-.36.262z" fill="#543E26"/><path fill-rule="evenodd" clip-rule="evenodd" d="M21.737 6.912s-.408.505-.522.583c.073-.156.522-1.08.685-1.338-.037-.029-.085-.029.029-.48-.097.228-.131.347-.211.408-.08.06-.09.041-.144.041a.102.102 0 00.012-.06s-.343-.042-.576-.042c-.234 0-.697.126-.954.228-.204.085-.318.085-.391.139-.073.06-.114.126-.15.143-.03.017-.168.06-.2.107-.029.048-.077.101-.077.114 0 .012-.012.029.024.017.012-.005.102-.054.204-.115a5.6 5.6 0 01.427-.22c.347-.139.456-.114.612-.144.162-.029.395-.097.55-.097.156-.004.45 0 .518.013-.03.024-.054.053-.042.155 0 .029-.024.06-.048.13-.072.2-.21.53-.288.698-.106.228-.228.42-.288.538-.06.12-.192.432-.322.6-.131.167-.2.27-.24.306-.041.036-.335.252-.313.33a1.62 1.62 0 00.635-.42c.245-.276.294-.444.486-.595.192-.15.342-.403.432-.611.075-.194.058-.255.153-.427h-.001z" fill="#806031"/><path fill-rule="evenodd" clip-rule="evenodd" d="M12.948 10.68s-.053.22-.175.33c-.118.107-.33.199-.354.379-.029.179.211.269.211.269s-.13.216-.13.379c0 .167-.005.198.011.359a.162.162 0 00-.048.048s.012.155.132.252c.118.097.22.155.28.131.01.02.018.04.025.06 0 0 .09-.227.15-.426.061-.204.115-.175.139-.45.024-.274.288-.745.288-.745l.18-.402-.294-.228-.415.044z" fill="#B6903C"/><path fill-rule="evenodd" clip-rule="evenodd" d="M13.495 11.075c-.06.062-.116.129-.167.2-.077.106-.138.203-.252.245-.114.041-.187.04-.18.155.007.114.114.162.175.22a.284.284 0 01.09.277c.036-.017.102-.036.162-.167.061-.131.485-.93.485-.93h-.313z" fill="#685026"/><path fill-rule="evenodd" clip-rule="evenodd" d="M15.168 9.233s.036-.097 0-.167c-.037-.073-.258-.097-.367-.18-.114-.085-.252-.144-.366-.107.017-.041.085-.131.029-.15-.054-.017-.253.072-.306.114-.053.041-.175.09-.2.119-.023.03-.065.085-.089.06-.024-.017-.036-.06-.078-.036-.04.024-.24.187-.276.282-.037.094-.12.305-.367.546-.247.24-.354.395-.281.485.072.09.106.024.119.102a.654.654 0 01-.013.228c-.029.126-.077.245-.012.27.168.053.33-.048.367-.017.073.065-.041.3.13.347.176.048.348-.042.348-.042l.636-.342.612-.322.313-.62-.168-.517-.032-.053z" fill="#D4B968"/><path fill-rule="evenodd" clip-rule="evenodd" d="M14.567 10.711s-.107-.162.024-.306c.132-.143.319-.204.391-.293a.112.112 0 00-.053-.037.483.483 0 01.211-.199.202.202 0 00-.138-.065c-.12 0-.192.073-.301.073-.107 0-.12-.054-.12-.054s.18-.017.163-.097c-.017-.085-.048-.085-.048-.085s.347-.144.408-.22c.06-.078.054-.168.066-.205.04 0 .281-.126.378-.072.097.053.03.199.03.199s.293-.221.443-.438c.131.012.192-.09.288-.09.119 0 .306.163.342.51.024.199.06.313.024.665-.016.199-.012.624.049.835.04.167.138.15.138.15a.272.272 0 01-.085.132c-.066.06-.073.22-.066.281.01.044.022.088.037.131 0 0-.078.09-.097.15-.017.061-.097.103-.156.103-.058 0-.029-.005-.107 0-.077.005-.101.017-.15 0-.049-.017-.085-.037-.066-.192.017-.156-.599-.517-.599-.517l-1.008-.36.002.001z" fill="#CCA849"/><path fill-rule="evenodd" clip-rule="evenodd" d="M13.41 12.245s.222.294 1.13.294c.431 0 .582-.041.671-.066.097-.024.461-.167.828-.6.33-.39.257-.55.257-.55l-.192-.03-.624.086-1.846.786-.224.08z" fill="#585136"/><path fill-rule="evenodd" clip-rule="evenodd" d="M14.087 12.318s-.786.175-.786-.323c0-.485.485-.995.607-1.085.126-.09.427-.192.427-.192h.726l.138.367-.06.791-1.052.442z" fill="#252211"/><path fill-rule="evenodd" clip-rule="evenodd" d="M14.813 10.867s-.15-.139-.493.048c-.342.186-.619.576-.636.93-.017.312.258.545.685.558.318.012.51-.025.607-.048l-.15-.187-.013-1.301z" fill="#C3B378"/><path fill-rule="evenodd" clip-rule="evenodd" d="M14.666 10.944s-.036-.03-.144.03c-.09.047-.22.174-.323.264-.065.053-.107.077-.144.119-.15.18-.277.473-.204.619.073.145.313.313.925.199l-.112-1.23.002-.001z" fill="#E6D89C"/><path fill-rule="evenodd" clip-rule="evenodd" d="M14.466 11.245s-.097.15-.097.391c0 .245.139.636.649.665.39.024.652-.563.936-.791.216-.175.347-.18.347-.18s-.22-.24-.81-.55c-.583-.314-1.236-.355-1.59.126.167-.013.709-.151.709-.151l.264.085-.408.405z" fill="#252211"/><path fill-rule="evenodd" clip-rule="evenodd" d="M15.227 11.563c-.017-.036-.03-.085.04-.097.071-.012.103-.005.127.048.024.053.048.097.012.12-.036.018-.13 0-.18-.071zm-.114-.342s-.025.017-.013-.017c.005-.041.037-.114.114-.097.078.017.061.102.048.126-.012.024-.077.066-.126.048a.041.041 0 01-.027-.024.04.04 0 01.003-.037z" fill="#6F674D"/><path fill-rule="evenodd" clip-rule="evenodd" d="M8.546 11.376s.192.144.415.139c.22-.006.504-.234.635-.38.078-.084.144-.174.216-.244.061-.061.102-.09.132-.131.04-.048.084-.139.106-.168-.053.041-.13.114-.21.163a2.51 2.51 0 01-.314.162c-.065.025-.745.384-.745.384l-.235.075z" fill="#AC924C"/><path fill-rule="evenodd" clip-rule="evenodd" d="M8.839 9.583s.106-.073.313-.12c.199-.047.6-.084.6-.084l.33.144.13.497-.24.517-.305.192-.348-.558-.48-.587v-.001z" fill="#9F8E57"/><path fill-rule="evenodd" clip-rule="evenodd" d="M8.405 10.027l-.114.085s.03-.053.053-.216c.025-.163.151-.558.335-.786.185-.228.18-.216.18-.216a.122.122 0 00-.097.024 1.16 1.16 0 01.335-.342c.155-.096.216-.126.379-.048.162.078.203.119.323.114.119-.005.22-.13.22-.13s.025.077-.065.256c-.09.18-.444.546-.444.546l-.738.505-.367.208z" fill="#EAC970"/><path fill-rule="evenodd" clip-rule="evenodd" d="M8.95 9.522s.534.073.697-.078c.005.017.024.017.024.03a.042.042 0 01-.012.024.39.39 0 01.054-.005c.021.006.043.01.065.012a.38.38 0 00.054-.005.09.09 0 01-.037.06c.024 0 .048.006.048.025 0 .02.005.078-.024.09a.11.11 0 01-.073-.005.3.3 0 00.037.131c.048.09.15.192.287.163 0 0 .073.174-.233.563-.04.053-.085.126-.138.187a.709.709 0 00-.048.143s.517-.2.665-.653c.15-.456.18-.905.15-1.325a.682.682 0 00-.053-.265c-.072-.15-.276-.126-.359-.041-.119.119-.318.415-.595.619-.281.204-.293.24-.51.33h.001z" fill="#D7BC6B"/><path fill-rule="evenodd" clip-rule="evenodd" d="M8.31 10.177s-.102.061-.155.288c-.054.233.048.517.106.607.059.09.192.335.469.347a.512.512 0 00.199-.041c.096-.044.187-.1.27-.168.118-.09.215-.167.203-.174-.029-.012-.733-.595-.733-.595l-.265-.295-.094.032z" fill="#585136"/><path fill-rule="evenodd" clip-rule="evenodd" d="M8.977 11.143s.143-.012.228-.065c.085-.054-.498-.631-.498-.631l.042.624.228.072z" fill="#453A25"/><path fill-rule="evenodd" clip-rule="evenodd" d="M8.357 10.133s-.073.139-.073.175c-.012.12.025.493.054.612.029.126.187.318.39.318.127 0 .302-.078.302-.097 0-.024-.18-.048-.229-.139-.029-.048-.04-.167-.048-.288-.004-.077-.004-.162.025-.192.065-.072.077-.281.077-.281l.233-.433h-.306l-.367.228-.058.098z" fill="#84754B"/><path fill-rule="evenodd" clip-rule="evenodd" d="M8.268 10.267s.24-.318.456-.39c.216-.074.313-.03.313-.03l-.126.323-.18.199.012.102s-.029.27.15.456c.18.187.314.18.392.18.078 0 .3-.066.415-.335.102-.252.187-.576-.017-.9-.2-.324-.551-.336-.62-.336-.067 0-.601.027-.795.73v.001z" fill="#252211"/><path fill-rule="evenodd" clip-rule="evenodd" d="M14.429 11.347c-.09-.041-.005-.293.085-.371a.632.632 0 01.403-.18c.073-.005.143.041.131.09-.017.09-.143.216-.257.306-.158.123-.26.201-.362.155z" fill="#F7F7E7"/><path fill-rule="evenodd" clip-rule="evenodd" d="M9.575 9.97c.065-.004.15.049.167.12.017.078-.04.233-.167.233-.102 0-.156-.126-.156-.163a.195.195 0 01.025-.085c.005-.007.017-.092.13-.104z" fill="#F8F6DE"/><path fill-rule="evenodd" clip-rule="evenodd" d="M8.63 10.027s-.168.077-.246.24a.637.637 0 00-.048.384c.012.06.073.21.114.264.042.054.097.09.139.085.04-.005.126-.114.126-.18 0-.065.005-.342.085-.492.07-.15-.17-.301-.17-.301z" fill="#D4C38B"/><path fill-rule="evenodd" clip-rule="evenodd" d="M8.653 10.015c-.029.016-.077.04-.065.072.012.03.114.048.15.12a.25.25 0 01.03.186.297.297 0 00.085-.06c.053-.061.118-.143.174-.143.037 0 .073.016.107.016.054 0 .107-.016.114-.072.012-.073-.102-.139-.167-.127.012-.048.029-.118-.025-.167-.053-.049-.22.036-.257.06-.036.025-.146.115-.146.115z" fill="#E2D59D"/><path fill-rule="evenodd" clip-rule="evenodd" d="M12.509 15.114l.36-.106.101.073s.073.155.187.175c-.036.077-.131.143-.126.199a.169.169 0 00.053.097s-.323.534.313 1.072a9.65 9.65 0 00-.444.192c.073.017.228.048.294.107.065.059.065.077.126.114.06.036.097.085.085.106-.041-.024-.18-.097-.204-.029-.024.068-.6.041-.6.041l-.97.187s.036-.097-.066-.186c-.119-.107-.264.004-.42-.114-.204-.156-.21-.336-.276-.403.065-.042.199-.102.517-.144-.012-.025-.054-.098-.03-.163.03-.085.15-.138.115-.24.053-.012.077-.012.21-.18.127-.167.205-.204.302-.216.097-.012.155 0 .335-.167.126-.12.085-.221.085-.221s.082-.027.053-.194z" fill="#CBAC5A"/><path fill-rule="evenodd" clip-rule="evenodd" d="M11.449 15.168c.005-.024.024-.036.155-.024.131.012.961-.078 1.187-.09.228-.017 1.032-.005 1.422.078.391.082.787.18.979.228.191.053.252.072.245.097-.005.024-.048.048-.073.04-.024-.004-.66-.198-.857-.24-.196-.04-.876-.15-1.248-.143-.347.005-.485-.005-.779.03-.294.036-.779.084-.925.065-.144-.017-.114-.017-.107-.042v.001z" fill="#D6BC6F"/><path fill-rule="evenodd" clip-rule="evenodd" d="M13.402 17.07s.498.27.678.6c.13.245-.078.366-.078.366s.282 0 .245.156c-.017.097-.485.359-.798.497-.318.139-.306.131-.461.156-.151.024-.564-.048-.649.073-.085.12-.048.245-.024.264.024.017.221.041.221.041s-.041.114-.449.127c-.408.012-.51.04-.534.085-.024.04.078.017.265.048.187.029.449.048.449.048s-.085.072-.306.13c-.253.066-.648.127-.767.2.06.04.15.102.192.106a1.212 1.212 0 00-.27.098l.085.053s-.204.245-.322.306c-.12.06-.804.378-1.04.318-.587-.156-.66-.799-.803-.847-.216-.073-.318.072-.51-.03.085-.06.132-.096.221-.138a17.04 17.04 0 01-.6-.366 3.715 3.715 0 00-.174-.335c-.097-.168-.24-.391-.347-.588-.233-.432-.245-.63-.456-.876.036-.048.162-.041.162-.041l1.77.582 3.138.091.816-1.165.347.042z" fill="#DFC677"/><path fill-rule="evenodd" clip-rule="evenodd" d="M8.755 18.847c.019.021.04.04.065.053.061.042.15.09.211.163.025-.036.085-.102.192 0s.24.03.323.053c.085.03.09.042.09.042s.048-.042.155-.085c.066-.024.143-.041.228-.066.078-.017.163-.04.221-.04.054.035.245.24 1.015-.061.726-.282.893-.314 1.014-.27.013-.03.025-.085.212-.078 0-.077-.156-.342-.156-.342l-.856-.294h-.47l-1.404.258-.78.444-.06.224z" fill="#C4A859"/><path fill-rule="evenodd" clip-rule="evenodd" d="M8.286 18.354s.017.131.211.27c.192.138.252.22.252.22s.037-.047.066-.096c.03-.054.054-.114.102-.131.097-.042.318.036.367.024.04-.012.029-.097.072-.097.102-.005.168.065.204.065.037 0 .126-.005.138-.024.013-.02.017-.22.156-.318a.415.415 0 01.384-.036c0 .036.005.126.102.13.097.006.107-.011.192.018.085.029.187-.005.233.138.041-.012.138-.024.114-.163.048-.036.09-.06.192-.203.024-.037.065-.078.097-.131.085 0 .187-.017.323.101-.042.03-.066.048-.078.078a.88.88 0 01.097.114c.037.048.06.107.107.12.102.028.27-.013.456 0a.91.91 0 01.396.118c.024-.012.024-.017.085-.005.06.012.107.017.041-.06.036.017.078.053.114.017.037-.037.066-.09.168-.102.101-.012.138.004.18-.102.053-.131-.132-.131-.132-.131s.085-.078.18-.18c.114-.107.245-.245.277-.415.053-.313-.253-.354-.253-.354l-1.483.456-1.813-.09-1.546.77h-.001z" fill="#927D49"/><path fill-rule="evenodd" clip-rule="evenodd" d="M6.953 14.07s-.048.061-.078.204c-.03.144-.017.127-.041.228-.024.102-.323 1.117-.211 1.46.112.341.306.468.427.744.024.06.048.097.06.15.042.18.006.319.054.498a.55.55 0 00.126.204c.144.15.38.294.48.396.143.15.347.456.607.485.139.017.335-.041.498-.138.144-.09.233-.216.384-.288.106-.053.22-.073.322-.097a1.46 1.46 0 01.518-.024c.174.036.587.162.816.162.178-.003.356-.027.529-.072.347-.102.767-.277 1.043-.355.163-.048.294-.06.428-.09.228-.053.42-.126.529-.264-.073-.085-.163-.216-.649-.212-.55.013-1.186.318-1.5.367-.313.049-.448.09-.798-.036-.343-.128-.354-.212-.354-.212s-.36-.252-.51-.894c-.151-.641 0-1.109.39-1.553.102-.114.078-.216.078-.216s.257-.347.187-.672c-.078-.323-.575-.257-.575-.257l-2.76.482z" fill="#6E6342"/><path fill-rule="evenodd" clip-rule="evenodd" d="M7.369 15.15a.252.252 0 00-.03.132c.006.065.025.15.222.342.167.167.13.354.13.354s.085.017.314-.09c.18-.085.24.066.24.066a.51.51 0 01.167-.054.364.364 0 00.15-.048s.212.216.396.318c.168.09.265.15.347.09.078-.054.078-.163.073-.211a.631.631 0 00-.073-.127c-.053-.077-.138-.167-.144-.24-.012-.167.127-.366.097-.415-.029-.048-.138-.06-.407.037-.28.092-1.483-.153-1.483-.153z" fill="#39331F"/><path fill-rule="evenodd" clip-rule="evenodd" d="M8.004 16.235s-.138-.13-.09-.766a.727.727 0 01.175.017s.075.492-.085.75z" fill="#292311"/><path fill-rule="evenodd" clip-rule="evenodd" d="M7.02 13.585a.384.384 0 00.053-.048c-.048.09-.27.449-.09 1.015.18.563.631.982 1.187 1.002.556.02.848-.252 1.182-.66.131-.163.282-.367.415-.505.2-.216.355-.277.355-.485 0-.428-.437-.62-1.08-.811-.644-.192-1.224-.168-1.525-.037-.293.143-.42.294-.497.53v-.001z" fill="#252211"/><path fill-rule="evenodd" clip-rule="evenodd" d="M9.085 16.427l.048-.024s.012-.192.09-.187c.077.012.113.114.106.15-.005.037-.024.098-.102.09-.102.003-.143-.029-.143-.029z" fill="#3F3824"/><path fill-rule="evenodd" clip-rule="evenodd" d="M8.869 15.612s.048-.017.107.041c.048 0 .257-.024.322.017.066.041.085.078.085.078s-.245.053-.378 0c-.136-.046-.136-.136-.136-.136z" fill="#2D2815"/><path fill-rule="evenodd" clip-rule="evenodd" d="M9.948 15.648a.593.593 0 00-.269-.131c-.024-.005-.03.012-.048.012-.012-.005-.017-.041-.017-.041l-.079.041s-.012.017.03.048c.036.03.097.054.114.102.016.048.016.066.024.073.005.005.09 0 .13-.025.042-.024.12-.063.115-.08v.001z" fill="#82764F"/><path fill-rule="evenodd" clip-rule="evenodd" d="M8.724 16.14s.025-.167.187-.174c.168-.012.2.15.2.15l-.098.098c0-.003-.073-.105-.288-.073z" fill="#2D2816"/><path fill-rule="evenodd" clip-rule="evenodd" d="M9.78 15.42s-.09.097-.29.126c-.016-.024-.053-.073 0-.15.054-.078.115-.102.176-.078a.143.143 0 01.114.102z" fill="#574F35"/><path fill-rule="evenodd" clip-rule="evenodd" d="M10.143 15.539c.005-.024-.011-.03 0-.041.012-.012.078-.037.09-.025.005.005 0 .025 0 .048 0 .024 0 .048-.012.066-.017.024-.065.036-.09.029-.024-.007-.029-.041-.029-.048.012-.005.041-.017.041-.03zm.415-.262c0-.012.041-.037.066-.037.036 0 .036.03.04.037.013.005.013-.005.025.017.012.022.03.06.017.085-.012.024-.06.04-.073.036a.647.647 0 01-.075-.138z" fill="#82764F"/><path fill-rule="evenodd" clip-rule="evenodd" d="M9.725 15.595s.053.012.126.072a.722.722 0 01-.061.037s-.005-.056-.065-.11z" fill="#6E6342"/><path fill-rule="evenodd" clip-rule="evenodd" d="M9.606 15.06c-.012-.011.037-.04.066-.036.029.005.041.025.072.03.032.004.037-.013.049-.025.011-.012.053-.005.06 0a.146.146 0 01.012.017.067.067 0 01.024-.048.077.077 0 01.066-.012c.005.017.03.077.024.09-.004.012-.077.029-.09.017.013.029.066.09.073.102.007.012-.053.04-.077.036a.99.99 0 01-.28-.17h.001zm.318-.402a.056.056 0 00-.024-.03c-.017-.004-.073 0-.073.03 0 .029.048.192.102.277.06.085.102.155.143.174a.056.056 0 00.073-.024c.005-.012.017-.102.012-.313-.005-.211-.012-.415-.024-.427-.012-.013-.06-.012-.078.012a2.28 2.28 0 00-.131.3z" fill="#585136"/><path fill-rule="evenodd" clip-rule="evenodd" d="M9.71 15.9s-.086-.053-.168-.017c-.078.037-.073.18-.073.18a.116.116 0 00.107-.012c.053-.036.121-.097.133-.15z" fill="#574F35"/><path fill-rule="evenodd" clip-rule="evenodd" d="M9.869 16.092c-.005-.048-.048-.048-.048-.072a.055.055 0 01.053-.042c.024 0 .048.03.078.048.029.017.072.048.077.085.005.037-.048.139-.107.139-.058 0-.04-.11-.053-.158zm.468-.065s-.097.029-.09 0c.007-.03.03-.037.06-.037a.096.096 0 01.061-.029c.014 0 .027.004.037.012 0 0 .065-.029.085-.012.02.017.005.017.017.037a.17.17 0 01.029.072c0 .02-.073.061-.131.054-.068-.015-.056-.085-.068-.097zm.565-.11s.03.017.005.037a.396.396 0 01-.175.053c-.072 0-.138.012-.138-.012s.06-.073.097-.085a.078.078 0 01.061-.029c.03 0 .143-.012.175-.017.029-.005.053.012.036.036-.007.018-.06.018-.06.018zm.168-.749s-.037.078-.078.078c-.04-.005-.04-.017-.04-.03 0-.016.04-.06.035-.072-.012 0-.04 0-.036-.03 0-.024.041-.053.078-.047a.16.16 0 01.097-.037c.041 0 .077.012.077.037 0 .024-.048.077-.065.09-.02.019-.044.031-.068.011zm-.553 1.434s-.048.005-.048.03c0 .012.011.012.029.005a.136.136 0 00.029-.006c.005.006.005.03.041.03a.231.231 0 00.085-.03c.03-.012.053-.024.053-.047-.012-.042-.036-.061-.072-.061a.097.097 0 00-.054.012s-.012-.024-.053 0c-.041.024-.037.024-.025.036.022.02.015.032.015.032zm-.275.253c0-.012.06-.037.078-.03.017.006.065.098.065.108 0 .012-.06.04-.085.04-.024 0-.065-.04-.065-.047 0-.005.029-.012.029-.017.007-.012-.022-.041-.022-.054zm-.192-.355c.012-.004.012-.017.03-.029a.042.042 0 01.036-.004.06.06 0 01.041-.03c.03-.005.054 0 .048.012 0 .037.024.061.024.09 0 .03-.016.066-.077.09a.429.429 0 01-.155.012c-.013-.004-.025-.053-.013-.077a.201.201 0 01.066-.064z" fill="#82764F"/><path fill-rule="evenodd" clip-rule="evenodd" d="M10.13 16.517s-.042.024-.042.036a.107.107 0 00-.005.037c0 .007.054-.005.06-.012.003-.005-.014-.048-.014-.061z" fill="#6E6342"/><path fill-rule="evenodd" clip-rule="evenodd" d="M9.767 16.403c.024.005.065 0 .097.012.024.012.041.037.017.066-.024.029-.048.072-.102.065-.06-.005-.119-.036-.119-.06a.116.116 0 01.03-.085c.024-.02.036-.008.077.002z" fill="#585136"/><path fill-rule="evenodd" clip-rule="evenodd" d="M9.739 16.427s-.078.06-.097.09c-.025.03-.144.18-.18.211a.45.45 0 01.041-.06.248.248 0 00-.102.13c-.029.09.163.139.289.176.126.036.175.047.175.047a1.358 1.358 0 01-.12-.22c-.047-.114-.072-.127-.04-.18.024-.053.06-.09.06-.131-.014-.038-.026-.063-.026-.063z" fill="#574F35"/><path fill-rule="evenodd" clip-rule="evenodd" d="M6.971 16.62a.15.15 0 00.053 0c.037-.006.415-.145.811-.12.296.018.59.066.876.144.498.131 1.117.39 1.517.539.107.041.211.114.288.143.306.119.318.119.498.15.211.03.427-.04.653-.09.276-.06.75-.09 1.165-.15a2.37 2.37 0 00.395-.09s-.33.33-1.121.45c-.32.048-.645.052-.966.012a2.945 2.945 0 01-.546-.098c-.143-.04-.437-.15-.799-.24-.252-.065-.534-.114-.856-.174-.797-.146-1.66-.313-1.968-.476z" fill="#252211"/><path fill-rule="evenodd" clip-rule="evenodd" d="M6.078 15.12a13.86 13.86 0 01-.595.467l-.6.461c-.203.15-.402.306-.606.456-.204.15-.408.294-.624.432.192-.162.396-.313.6-.46.203-.149.415-.294.611-.444l.6-.461c.206-.15.405-.306.614-.452zm-1.06 1.698s.215-.18.485-.432c.335-.313.745-.713.876-.786l-1.362 1.218z" fill="#CFB66C"/><path fill-rule="evenodd" clip-rule="evenodd" d="M5.016 16.818a8.47 8.47 0 01.335-.313l.175-.15c.053-.049.114-.102.167-.156.107-.107.211-.22.318-.33.053-.055.109-.107.168-.155a.452.452 0 01.097-.066c.029-.017.06-.048.101-.053-.024.036-.053.053-.077.085-.03.024-.054.053-.078.077-.053.054-.114.102-.167.15-.114.098-.233.193-.347.294-.114.102-.221.212-.335.313-.124.105-.238.207-.357.304zm1.451-.97s-.79.774-.954.9l.954-.9z" fill="#CFB66C"/><path fill-rule="evenodd" clip-rule="evenodd" d="M6.468 15.847c-.071.083-.148.16-.229.233l-.24.228c-.077.078-.15.156-.233.233-.085.073-.162.144-.252.211l.233-.228c.078-.077.163-.143.245-.22l.233-.229c.08-.08.158-.157.243-.228zm.036.42a5.04 5.04 0 01-.257.595c-.204.408-.51.917-.643 1.177l.9-1.772z" fill="#CFB66C"/><path fill-rule="evenodd" clip-rule="evenodd" d="M6.506 16.267a.66.66 0 01-.054.245c-.028.078-.06.154-.096.228-.037.073-.078.15-.12.221-.04.07-.09.143-.126.216l-.245.432c-.085.144-.167.29-.257.427.06-.155.143-.3.22-.444a9.21 9.21 0 00.24-.437 2.12 2.12 0 00.103-.228c.036-.077.072-.15.102-.22.036-.078.065-.151.102-.221.04-.076.075-.149.13-.219z" fill="#CFB66C"/><path fill-rule="evenodd" clip-rule="evenodd" d="M7.368 18.257s-.24.318-.216.721c.066-.21.148-.534.216-.72zm.228.319s-.085.864-.155 1.289c.1-.491.119-.45.155-1.289zm1.59 1.34s-.36 1.056-.366 1.35c.077-.302.228-.919.366-1.35z" fill="#DEC270"/><path fill-rule="evenodd" clip-rule="evenodd" d="M10.026 18.192s.582.961 1.02 1.782c-.12-.413-.391-1.17-1.02-1.782z" fill="#CBAF59"/><path fill-rule="evenodd" clip-rule="evenodd" d="M11.592 19.607c.32.565.609 1.148.864 1.745-.048-.413-.18-1.119-.864-1.745z" fill="#E3C677"/><path fill-rule="evenodd" clip-rule="evenodd" d="M16.193 21.024c.097-.06.29-.39.457-.473.167-.085.293-.102.444-.27.15-.175.192-.281.522-.42.46-.199.144-.456.144-.456.05-.05.105-.096.162-.138.12-.09.257-.2.245-.391-.017-.323-.077-.791-.342-1.063.258-.054.75-.09 1.056-.168.354-.09.517-.216.517-.216s-.204-.347.126-.696c.33-.35.6-.558.799-.95-.228-.028-.576-.15-1.464.188.048.022.094.048.139.077 0 0-.546.15-.745.318-.348.294-.391.534-.768.714-.376.18-.754.13-1.067.277-.313.145-.36.269-.474.322.024.03-.005.078.041.12-.029.04-.198.317-.37.317.016.066.162.114.162.114s-.107.078-.379.097c.138.144.27.301.631.53-.029.06-.15.15-.102.264.054.114.192.27.745.396-.281.012-.611.077-1.056.017-.444-.054-.517-.085-.79-.017.028.029.106.029.174.107-.073.004-.53-.054-.685.15-.162.211-.232.558-.22.791-.085.042-.168.114-.127.265.042.15.258.199.396.294.138.102.15.138.282.114.138-.03.342-.168.46-.168a.31.31 0 01.205.09s.322-.155.354-.126c.03.029.005.216.036.245.032.022.396-.194.493-.255z" fill="#ECD592"/><path fill-rule="evenodd" clip-rule="evenodd" d="M23.249 11.31c-1.517-3.917-5.267-4.642-5.267-4.642H7.283l.041 3.99h2.131v8.91H7.283v3.983h10.403c2.507 0 4.517-2.52 4.517-2.52 3.218-4.567 1.046-9.72 1.046-9.72zm-5.507 7.037s-.816 1.177-1.704 1.177h-1.776l-.042-8.857h2.279s1.056.221 1.794 2.311c0 0 .978 2.992-.551 5.369z" fill="#fff" fill-opacity=".8"/></svg>