<svg width="30" height="30" fill="none" xmlns="http://www.w3.org/2000/svg"><circle cx="15" cy="15" r="14.483" fill="#fff" stroke="#C0B8DA" stroke-width="1.034"/><path d="M11.924 13.223l3.127-3.109 3.128 3.11 1.82-1.809-4.948-4.918-4.947 4.917 1.82 1.809zM7 14.5l1.82-1.809 1.819 1.809-1.82 1.808L7 14.5zm4.924 1.277l3.127 3.109 3.128-3.11 1.82 1.808-4.948 4.919-4.947-4.917-.002-.003 1.822-1.806zm7.538-1.276l1.82-1.809 1.82 1.809-1.82 1.808-1.82-1.808z" fill="#F3BA2F"/><path d="M16.896 14.5l-1.845-1.836-1.365 1.356-.156.156-.324.321-.002.003.002.002 1.845 1.834 1.846-1.835V14.5" fill="#F3BA2F"/></svg>