<svg width="30" height="30" fill="none" xmlns="http://www.w3.org/2000/svg"><path d="M29.548 18.629c-2.003 8.035-10.142 12.926-18.18 10.922C3.336 27.548-1.554 19.408.45 11.373 2.452 3.336 10.591-1.555 18.625.449c8.036 2.003 12.926 10.144 10.923 18.18z" fill="#F7931A"/><path d="M21.637 12.842c.299-1.996-1.22-3.069-3.299-3.785l.674-2.704-1.646-.41-.656 2.633c-.433-.108-.877-.21-1.319-.31l.661-2.65-1.645-.41-.674 2.702a48.49 48.49 0 01-1.051-.247l.002-.008-2.27-.567-.438 1.758s1.22.28 1.195.297c.667.167.787.608.767.957l-.768 3.081c.046.012.106.029.171.055l-.173-.043-1.077 4.315c-.081.203-.288.507-.754.391.016.024-1.196-.298-1.196-.298l-.818 1.884 2.142.534c.399.1.79.204 1.174.303l-.681 2.735 1.644.41.674-2.706c.45.122.885.234 1.312.34l-.672 2.693 1.646.41.681-2.73c2.807.532 4.917.318 5.806-2.221.715-2.044-.036-3.223-1.513-3.992 1.076-.248 1.886-.955 2.102-2.416zm-3.76 5.274c-.51 2.044-3.95.939-5.066.662l.904-3.623c1.115.278 4.693.83 4.162 2.96zm.509-5.303c-.464 1.859-3.329.914-4.258.683l.82-3.286c.929.231 3.921.663 3.438 2.603z" fill="#fff"/></svg>