<?xml version="1.0" encoding="utf-8"?><svg xmlns="http://www.w3.org/2000/svg" xmlns:xlink="http://www.w3.org/1999/xlink"><symbol viewBox="0 0 10 5" id="down" xmlns="http://www.w3.org/2000/svg"><path d="M0 .478A.43.43 0 01.236.11C.33 0 .519 0 .66 0c.142.037.283.074.378.184L5 3.824 8.962.22c.142-.11.283-.184.472-.184.33 0 .566.22.566.478a.37.37 0 01-.142.294L5.425 4.853c0 .037-.048.037-.048.037a.914.914 0 01-.424.11c-.142 0-.283-.074-.425-.147L.094.809C.047.772.047.772.047.735 0 .662 0 .551 0 .478z"/></symbol></svg>