<svg width="39" height="38" fill="none" xmlns="http://www.w3.org/2000/svg"><path opacity=".08" d="M36.314 19.736a18.156 18.156 0 11-36.312.008 18.156 18.156 0 0136.312-.008z" fill="#000"/><path d="M38.008 18.153a18.157 18.157 0 11-36.315.007 18.157 18.157 0 0136.315-.007z" fill="#4C4944"/><path d="M19.85 33.458c8.453 0 15.306-6.852 15.306-15.305 0-8.452-6.853-15.305-15.305-15.305-8.453 0-15.305 6.853-15.305 15.305 0 8.453 6.852 15.305 15.305 15.305z" fill="url(#paint0_linear_6_528)"/><path d="M19.85 33.458c8.453 0 15.306-6.852 15.306-15.305 0-8.452-6.853-15.305-15.305-15.305-8.453 0-15.305 6.853-15.305 15.305 0 8.453 6.852 15.305 15.305 15.305z" stroke="#83755F" stroke-width=".815" stroke-miterlimit="10"/><path style="mix-blend-mode:screen" opacity=".24" d="M28.639 34.045a18.45 18.45 0 01-2.583 1.18L2.531 12.718a18.19 18.19 0 011.07-2.645l25.038 23.972z" fill="url(#paint1_linear_6_528)"/><path d="M15.339 16.085L20 11.424l4.663 4.663 2.712-2.712L20 6l-7.373 7.373 2.712 2.712zM8 18l2.712-2.713L13.424 18l-2.712 2.713L8 18zm7.339 1.915L20 24.576l4.663-4.663 2.713 2.71v.002L20 30l-7.373-7.373-.004-.004 2.716-2.708zm11.237-1.914l2.712-2.712L32 18.001l-2.712 2.712-2.712-2.712z" fill="#F3BA2F"/><path d="M22.75 17.999h.001L20 15.247l-2.034 2.033-.233.234-.482.482-.004.004.004.003 2.75 2.75 2.751-2.752.002-.001-.003-.001" fill="#F3BA2F"/><defs><linearGradient id="paint0_linear_6_528" x1="4.546" y1="18.153" x2="35.152" y2="18.153" gradientUnits="userSpaceOnUse"><stop stop-color="#666B87"/><stop offset=".65" stop-color="#4E5167"/><stop offset="1" stop-color="#272936"/></linearGradient><linearGradient id="paint1_linear_6_528" x1="22.167" y1="29.728" x2="29" y2="16" gradientUnits="userSpaceOnUse"><stop stop-color="#7C7C7C"/><stop offset=".245" stop-color="#8A8A8A"/><stop offset=".5" stop-color="#575757"/><stop offset=".651" stop-color="#1B1B1B"/><stop offset=".859"/></linearGradient></defs></svg>