<svg width="337" height="324" fill="none" xmlns="http://www.w3.org/2000/svg"><path opacity=".35" d="M72.15 51.296h179.114L337 324H0L72.15 51.296z" fill="url(#paint0_linear_5_4034)"/><g filter="url(#filter0_d_5_4034)"><path d="M161.477 83.638c16.638 0 30.126-5.53 30.126-12.353 0-6.822-13.488-12.352-30.126-12.352s-30.125 5.53-30.125 12.352 13.487 12.353 30.125 12.353z" fill="#FFF1FA"/></g><path d="M252.337 50.551c0 13.168-40.682 23.848-90.86 23.848-50.179 0-90.859-10.68-90.859-23.848s40.68-29.935 90.86-29.935c50.177.003 90.859 16.767 90.859 29.935z" fill="url(#paint1_linear_5_4034)"/><path d="M252.337 50.55c0 13.169-40.682 23.849-90.86 23.849-50.179 0-90.859-10.68-90.859-23.848s40.68-.51 90.86-.51c50.177 0 90.859-12.658 90.859.51z" fill="url(#paint2_linear_5_4034)"/><g filter="url(#filter1_ii_5_4034)"><path d="M198.392 27.717C196.067 12.091 180.447 0 161.477 0c-18.961 0-34.583 12.091-36.908 27.717 0 0 22.473 2.117 36.908 2.117 14.438 0 36.915-2.117 36.915-2.117z" fill="url(#paint3_linear_5_4034)"/></g><path d="M98.629 35.773c.525 1.059-.406 2.648-.801 2.867-.404.214-2.178.092-2.703-.966l-8.933-20.598c-.522-1.053-.625-2.09-.221-2.304.4-.214 1.153.462 1.675 1.518l10.983 19.483z" fill="#048389"/><path d="M85.966 17.947c1.742 0 3.155-1.475 3.155-3.294 0-1.82-1.413-3.294-3.155-3.294-1.742 0-3.154 1.475-3.154 3.294 0 1.82 1.412 3.294 3.154 3.294z" fill="#FFC0E8"/><path d="M224.328 35.773c-.523 1.059.405 2.648.803 2.867.403.214 2.175.092 2.7-.966l8.933-20.598c.525-1.053.628-2.09.221-2.304-.4-.214-1.147.462-1.669 1.518l-10.988 19.483z" fill="#048389"/><path d="M236.976 17.95c1.744 0 3.157-1.476 3.157-3.297 0-1.82-1.413-3.297-3.157-3.297s-3.158 1.476-3.158 3.297c0 1.821 1.414 3.297 3.158 3.297z" fill="#FFC0E8"/><path d="M156.696 5.864c-5.101-.666-17.216 1.798-24.867 16.979 4.463-5.327 15.685-16.18 24.867-16.98z" fill="#fff"/><defs><linearGradient id="paint0_linear_5_4034" x1="161.883" y1="51.296" x2="164.112" y2="316.763" gradientUnits="userSpaceOnUse"><stop stop-color="#fff"/><stop offset="1" stop-color="#fff" stop-opacity="0"/></linearGradient><linearGradient id="paint1_linear_5_4034" x1="77.313" y1="40.82" x2="248.512" y2="39.904" gradientUnits="userSpaceOnUse"><stop stop-color="#FEE0FF"/><stop offset="1" stop-color="#C096CB"/></linearGradient><linearGradient id="paint2_linear_5_4034" x1="70.618" y1="49.809" x2="252.337" y2="49.809" gradientUnits="userSpaceOnUse"><stop stop-color="#6867AE"/><stop offset="1" stop-color="#292978"/></linearGradient><linearGradient id="paint3_linear_5_4034" x1="131.829" y1="11.856" x2="198.833" y2="18.273" gradientUnits="userSpaceOnUse"><stop stop-color="#DFE4FF"/><stop offset="1" stop-color="#8798EF"/></linearGradient><filter id="filter0_d_5_4034" x="125.422" y="56.777" width="72.109" height="36.563" filterUnits="userSpaceOnUse" color-interpolation-filters="sRGB"><feFlood flood-opacity="0" result="BackgroundImageFix"/><feColorMatrix in="SourceAlpha" values="0 0 0 0 0 0 0 0 0 0 0 0 0 0 0 0 0 0 127 0" result="hardAlpha"/><feOffset dy="3.773"/><feGaussianBlur stdDeviation="2.965"/><feColorMatrix values="0 0 0 0 0.968627 0 0 0 0 0.65098 0 0 0 0 0.945098 0 0 0 0.7 0"/><feBlend in2="BackgroundImageFix" result="effect1_dropShadow_5_4034"/><feBlend in="SourceGraphic" in2="effect1_dropShadow_5_4034" result="shape"/></filter><filter id="filter1_ii_5_4034" x="124.14" y="-.429" width="75.325" height="31.335" filterUnits="userSpaceOnUse" color-interpolation-filters="sRGB"><feFlood flood-opacity="0" result="BackgroundImageFix"/><feBlend in="SourceGraphic" in2="BackgroundImageFix" result="shape"/><feColorMatrix in="SourceAlpha" values="0 0 0 0 0 0 0 0 0 0 0 0 0 0 0 0 0 0 127 0" result="hardAlpha"/><feOffset dx="-1.078" dy="-1.078"/><feGaussianBlur stdDeviation=".214"/><feComposite in2="hardAlpha" operator="arithmetic" k2="-1" k3="1"/><feColorMatrix values="0 0 0 0 0.227451 0 0 0 0 0.223529 0 0 0 0 0.52549 0 0 0 0.15 0"/><feBlend in2="shape" result="effect1_innerShadow_5_4034"/><feColorMatrix in="SourceAlpha" values="0 0 0 0 0 0 0 0 0 0 0 0 0 0 0 0 0 0 127 0" result="hardAlpha"/><feOffset dx="1.078" dy="1.078"/><feGaussianBlur stdDeviation=".536"/><feComposite in2="hardAlpha" operator="arithmetic" k2="-1" k3="1"/><feColorMatrix values="0 0 0 0 1 0 0 0 0 1 0 0 0 0 1 0 0 0 0.3 0"/><feBlend in2="effect1_innerShadow_5_4034" result="effect2_innerShadow_5_4034"/></filter></defs></svg>